PathFileType  4	(X/Y/Z) C:\Users\antoi\Documents\MyRepositories\mobilecap\ResultsAnalysis
DataRate	CameraRate	NumFrames	NumMarkers	Units	OrigDataRate	OrigDataStartFrame	OrigNumFrames
100.0	100.0	4	51	mm	100.0	17	131
Frame#	Time	r_knee			r_shank_antsup			r_ankle			r_calc			r_5meta			r_toe			L_knee			L_shank_antsup			L_ankle			L_calc			L_5meta			L_toe			r_sh2			r_sh3			r_sh4			L_sh2			L_sh3			r_thigh1			r_thigh2			r_thigh3			r_thigh4			r_thigh5			L_thigh1			L_thigh2			L_thigh3			L_thigh4			r.ASIS			r.PSIS			L.ASIS			L.PSIS			C7			R_Shoulder			L_Shoulder			R_Sternum			L_Sternum			R_humerus			R_elbow_med			R_elbow_lat			R_forearm			R_wrist_radius			R_wrist_ulna			L_humerus			L_elbow_med			L_elbow_lat			L_forearm			L_wrist_radius			L_wrist_ulna			R_HJC			L_HJC			R_HJC_reg			L_HJC_reg			
		X1	Y1	Z1	X2	Y2	Z2	X3	Y3	Z3	X4	Y4	Z4	X5	Y5	Z5	X6	Y6	Z6	X7	Y7	Z7	X8	Y8	Z8	X9	Y9	Z9	X10	Y10	Z10	X11	Y11	Z11	X12	Y12	Z12	X13	Y13	Z13	X14	Y14	Z14	X15	Y15	Z15	X16	Y16	Z16	X17	Y17	Z17	X18	Y18	Z18	X19	Y19	Z19	X20	Y20	Z20	X21	Y21	Z21	X22	Y22	Z22	X23	Y23	Z23	X24	Y24	Z24	X25	Y25	Z25	X26	Y26	Z26	X27	Y27	Z27	X28	Y28	Z28	X29	Y29	Z29	X30	Y30	Z30	X31	Y31	Z31	X32	Y32	Z32	X33	Y33	Z33	X34	Y34	Z34	X35	Y35	Z35	X36	Y36	Z36	X37	Y37	Z37	X38	Y38	Z38	X39	Y39	Z39	X40	Y40	Z40	X41	Y41	Z41	X42	Y42	Z42	X43	Y43	Z43	X44	Y44	Z44	X45	Y45	Z45	X46	Y46	Z46	X47	Y47	Z47	X48	Y48	Z48	X49	Y49	Z49	X50	Y50	Z50	X51	Y51	Z51	

17	0.16000000	159.36511	468.15207	-73.03173	207.91988	412.72639	-81.83577	186.66908	79.03672	-104.10665	133.86882	53.80495	-147.87791	301.31866	41.96222	-90.80395	339.07286	71.82041	-143.67351	-57.31917	446.82491	-347.96544	-82.14068	357.06856	-339.21049	-335.47537	176.93399	-318.22488	-397.10101	198.51862	-273.43186	-311.62049	57.80292	-335.32839	-261.15761	43.45874	-282.52576	206.99513	300.55093	-77.23628	137.67641	414.27262	-46.42954	128.13128	297.65567	-48.10320	-130.38389	425.74127	-370.01256	-222.65744	344.76336	-370.70324	130.68632	715.50988	-21.47698	163.08556	608.26708	-38.69162	109.13367	567.61463	-40.93921	21.41349	678.75961	-28.81284	56.86420	570.82514	-62.04351	45.03384	709.38852	-387.67475	25.47506	572.68823	-366.53408	-65.05831	721.97051	-386.87673	-84.13062	594.84242	-340.55469	122.33374	910.22175	-97.83561	-93.06706	928.04743	-163.50808	116.78488	894.97786	-321.35589	-90.96640	926.43937	-243.57131	-8.81290	1375.40547	-195.02027	28.31232	1337.82730	-49.99472	38.92808	1351.84869	-328.52255	116.31214	1306.79163	-163.99319	116.48743	1309.61919	-205.75444	22.11744	1223.27769	12.36720	-94.52908	1036.01953	-22.73369	-73.50568	1042.74012	39.37814	-34.65658	962.49018	71.18808	-32.13058	817.38219	86.83888	-66.94887	823.29955	104.20958	56.75874	1258.64888	-406.65624	33.06829	1028.53517	-416.94678	61.64150	1061.61797	-470.45773	156.40412	1007.02718	-468.97634	248.59344	919.45902	-446.67034	227.95871	899.77058	-478.72276	42.67051	820.12394	-95.59610	34.67606	809.91424	-302.67381	49.78120	831.73192	-128.71533	53.64467	828.77417	-276.53002	
18	0.17000000	169.45118	468.96679	-71.51905	216.51042	412.29185	-80.47045	187.50415	79.18004	-104.36249	134.16163	54.47589	-147.68015	301.78106	41.46055	-90.90952	339.94196	69.83061	-144.25661	-32.61714	444.62481	-350.65257	-59.97325	355.80008	-341.72594	-319.02265	185.65620	-318.49942	-377.64764	213.03744	-272.60408	-305.82041	64.99410	-335.03852	-255.48299	46.57530	-283.36114	213.11829	300.12754	-76.15962	146.29387	415.19154	-45.15683	134.08627	298.83838	-47.26843	-106.40942	426.07928	-371.75909	-201.27470	348.37713	-371.33402	142.64960	716.84012	-19.58065	174.67810	609.49656	-36.92848	120.50995	569.14896	-38.97318	33.33908	680.63005	-26.25344	68.11202	572.41716	-59.78399	62.48896	709.85537	-386.53432	46.81749	572.30005	-367.36081	-47.91675	719.38626	-385.86236	-63.31077	590.88409	-341.80405	134.65098	912.44840	-95.82977	-80.48860	929.86842	-163.36413	129.97727	895.85507	-318.98652	-77.79355	927.43236	-243.59953	4.12821	1376.83446	-193.53991	42.00647	1339.30783	-48.71950	51.54455	1353.48647	-327.18577	129.28828	1308.45217	-163.00062	129.39143	1311.17531	-204.66152	37.24128	1224.46184	13.29913	-78.55443	1036.64290	-21.06145	-56.82025	1043.04737	40.73650	-16.35677	962.87170	71.35418	-11.86306	817.73762	85.93568	-46.59376	823.07719	104.01871	68.26171	1259.94833	-405.33116	42.72370	1030.12918	-413.74212	70.82395	1062.40974	-467.96428	164.71111	1006.07888	-467.66058	255.25933	916.53168	-446.46278	233.73430	897.30722	-478.12249	54.72899	822.39104	-93.61215	48.25235	810.74446	-300.66620	61.90401	834.27981	-126.41994	66.84709	829.81125	-273.97671	
19	0.18000000	178.53897	469.42403	-70.45004	224.21983	411.65911	-79.32618	188.25982	79.35243	-104.76484	134.39513	55.05548	-147.57873	302.16217	41.18556	-91.14331	340.63643	68.07406	-144.97180	-7.14665	442.70881	-353.19851	-36.69389	354.73340	-343.73323	-301.13976	194.65927	-318.37762	-356.20303	227.09575	-270.94951	-298.15936	73.36469	-334.65190	-247.85961	50.77130	-284.52287	218.54415	299.55403	-75.33277	153.94524	415.79237	-44.38272	139.33480	299.73378	-46.91701	-81.31896	426.29148	-373.44334	-178.49146	351.69893	-371.88962	154.25562	717.70840	-17.95086	185.53265	610.14796	-35.52337	131.01466	570.30424	-37.39326	44.74338	682.40891	-23.97590	78.47807	573.90934	-57.93952	79.86459	710.53421	-385.45156	68.46218	572.25935	-368.11166	-30.77163	716.73348	-385.03904	-42.18345	586.99859	-343.11762	146.76253	914.54267	-93.83894	-68.15860	931.60251	-163.29042	142.82781	896.74791	-316.67704	-64.99713	928.34576	-243.72020	16.95199	1378.26280	-192.20526	55.58727	1340.81135	-47.59107	64.03569	1355.07967	-325.97449	142.12481	1310.09010	-162.18073	142.16204	1312.68772	-203.72359	52.33788	1225.68315	14.11687	-62.50945	1037.19315	-19.29837	-40.02750	1043.34335	42.14761	2.20367	963.37446	71.53137	9.05493	818.26107	84.98999	-25.57071	822.93624	103.78057	79.74785	1261.21619	-404.08027	52.29534	1031.74797	-410.62751	79.92394	1063.20173	-465.53707	172.83222	1005.05946	-466.47336	261.57895	913.45842	-446.35510	239.19330	894.73875	-477.60540	66.50758	824.53210	-91.74778	61.52779	811.55997	-298.77053	73.84788	836.76898	-124.05755	79.63069	830.81365	-271.37802	
20	0.19000000	186.62650	469.59026	-69.82565	231.10281	410.89308	-78.48128	188.96260	79.56690	-105.27793	134.59999	55.57263	-147.58841	302.48756	41.03321	-91.45378	341.22179	66.48546	-145.73865	18.92066	441.25396	-355.48573	-12.47303	353.97145	-345.19756	-281.91934	203.74058	-317.86871	-333.20228	240.16184	-268.54898	-287.99339	82.54865	-334.29303	-237.57869	55.98927	-286.05794	223.36502	298.88654	-74.78743	160.72892	416.14314	-44.04321	144.00434	300.39038	-46.93515	-55.32707	426.49753	-374.99398	-154.51721	354.77176	-372.39043	165.44993	718.15336	-16.66041	195.59534	610.25713	-34.50727	140.59446	571.12368	-36.27540	55.57631	684.14597	-22.15635	87.93059	575.35415	-56.60200	97.07842	711.49622	-384.42686	90.26466	572.68150	-368.77120	-13.69330	714.16588	-384.39949	-20.86873	583.39436	-344.39280	158.71380	916.39680	-91.92498	-56.03497	933.19716	-163.18760	155.34935	897.67876	-314.52033	-52.59899	929.17184	-243.83356	29.65148	1379.68101	-190.99876	69.05025	1342.29449	-46.58509	76.35513	1356.58211	-324.90217	154.83412	1311.65630	-161.52543	154.79661	1314.12959	-202.94694	67.37616	1226.89613	14.82577	-46.43084	1037.61665	-17.41767	-23.11399	1043.57443	43.61488	20.96009	963.96510	71.74081	30.56358	818.94382	84.00653	-3.95184	822.86239	103.49034	91.17689	1262.39787	-402.90820	61.79659	1033.30564	-407.69684	88.98647	1063.94020	-463.21575	180.81251	1003.94482	-465.42210	267.61323	910.25060	-446.34055	244.45614	892.07463	-477.19534	78.08620	826.43867	-90.06443	74.46706	812.38205	-297.05583	85.69293	839.11466	-121.68192	91.96090	831.77824	-268.80958	
